<?xml version="1.0" encoding="UTF-8"?>
<!--
  bwm-brand-assets · register=b · surface=hero · concept=node-mesh-ascending · v1
  source: round-015b-decode.html · surface 01 · reading 3 (B · high-density node mesh)
  locked: 2026-04-30 against brand/BWM-Imagery-Direction-Locked.md
  use: homepage hero, /review page hero, deck hero (denser alternative to funnel-3-layer)
  density: high (architecturally dense — many nodes ascending to single Y2 verdict)
  pre-flight:
    fills/strokes: #050507 canvas + rgba(250,250,250,*) hairlines + #F0FF00 verdict (top-right only)
    no warm tones · no banned typefaces · no humans · no vendor logos
-->
<svg xmlns="http://www.w3.org/2000/svg" viewBox="0 0 320 200" preserveAspectRatio="xMidYMid meet" role="img" aria-label="Ascending node mesh resolving at single yellow verdict node">
  <rect width="320" height="200" fill="#050507"/>
  <g stroke="rgba(250,250,250,0.4)" stroke-width="0.7" fill="none">
    <line x1="40" y1="160" x2="80" y2="140"/>
    <line x1="80" y1="140" x2="120" y2="120"/>
    <line x1="120" y1="120" x2="160" y2="100"/>
    <line x1="160" y1="100" x2="200" y2="80"/>
    <line x1="200" y1="80" x2="240" y2="60" stroke="#F0FF00" stroke-width="1.2"/>
    <line x1="240" y1="60" x2="280" y2="40" stroke="#F0FF00" stroke-width="1.2"/>
    <line x1="60" y1="180" x2="100" y2="160"/>
    <line x1="100" y1="160" x2="140" y2="140"/>
    <line x1="140" y1="140" x2="180" y2="120"/>
    <line x1="180" y1="120" x2="220" y2="100"/>
    <line x1="220" y1="100" x2="260" y2="80"/>
    <line x1="80" y1="140" x2="100" y2="160"/>
    <line x1="120" y1="120" x2="140" y2="140"/>
    <line x1="160" y1="100" x2="180" y2="120"/>
    <line x1="200" y1="80" x2="220" y2="100"/>
    <line x1="240" y1="60" x2="260" y2="80"/>
  </g>
  <g>
    <circle cx="40" cy="160" r="3" fill="rgba(250,250,250,0.6)"/>
    <circle cx="80" cy="140" r="3" fill="rgba(250,250,250,0.6)"/>
    <circle cx="120" cy="120" r="3" fill="rgba(250,250,250,0.6)"/>
    <circle cx="160" cy="100" r="3" fill="rgba(250,250,250,0.6)"/>
    <circle cx="200" cy="80" r="3" fill="rgba(250,250,250,0.6)"/>
    <circle cx="240" cy="60" r="4" fill="rgba(240,255,0,0.20)" stroke="#F0FF00" stroke-width="1.2"/>
    <circle cx="280" cy="40" r="6" fill="rgba(240,255,0,0.30)" stroke="#F0FF00" stroke-width="1.5"/>
    <circle cx="60" cy="180" r="3" fill="rgba(250,250,250,0.6)"/>
    <circle cx="100" cy="160" r="3" fill="rgba(250,250,250,0.6)"/>
    <circle cx="140" cy="140" r="3" fill="rgba(250,250,250,0.6)"/>
    <circle cx="180" cy="120" r="3" fill="rgba(250,250,250,0.6)"/>
    <circle cx="220" cy="100" r="3" fill="rgba(250,250,250,0.6)"/>
    <circle cx="260" cy="80" r="3" fill="rgba(250,250,250,0.6)"/>
    <circle cx="280" cy="40" r="2" fill="#F0FF00"/>
  </g>
</svg>
