<svg xmlns="http://www.w3.org/2000/svg" viewBox="0 0 1200 630" width="1200" height="630">
  <rect width="1200" height="630" fill="#07070c"/>
  <!-- B-mark top-left -->
  <g transform="translate(72, 60)">
    <path d="M50.4 78.5a75.1 75.1 0 0 0-28.5 6.9l24.2-65.7c.7-2 1.9-3.2 3.4-3.2h29c1.5 0 2.7 1.2 3.4 3.2l24.2 65.7s-11.6-7-28.5-7L67 45.5c-.4-1.7-1.6-2.8-2.9-2.8-1.3 0-2.5 1.1-2.9 2.7L50.4 78.5Zm-1.1 28.2Zm-4.2-20.2c-2 6.6-.6 15.8 4.2 20.2a17.5 17.5 0 0 1 .2-.7 5.5 5.5 0 0 1 5.7-4.5c2.8.1 4.3 1.5 4.7 4.7.2 1.1.2 2.3.2 3.5v.4c0 2.7.7 5.2 2.2 7.4a13 13 0 0 0 5.7 4.9v-.3l-.2-.3c-1.8-5.6-.5-9.5 4.4-12.8l1.5-1a73 73 0 0 0 3.2-2.2 16 16 0 0 0 6.8-11.4c.3-2 .1-4-.6-6l-.8.6-1.6 1a37 37 0 0 1-22.4 2.7c-5-.7-9.7-2-13.2-6.2Z" fill="#d4a955"/>
  </g>
  <!-- mono masthead -->
  <text x="200" y="105" font-family="JetBrains Mono, monospace" font-size="22" letter-spacing="6" fill="#a8a298">
    BUILDWISE<tspan fill="#d4a955" dx="6">·</tspan><tspan dx="6">MEDIA</tspan>
  </text>
  <!-- Main display headline with italic-gold em -->
  <text x="72" y="340" font-family="Instrument Serif, Georgia, serif" font-size="100" fill="#f4f1ea">
    Marketing as
  </text>
  <text x="72" y="445" font-family="Instrument Serif, Georgia, serif" font-style="italic" font-size="100" fill="#d4a955">
    operations.
  </text>
  <!-- Subhead -->
  <text x="72" y="510" font-family="Inter Tight, sans-serif" font-weight="300" font-size="26" fill="#a8a298">
    Ad spend in. Revenue out. Verified weekly.
  </text>
  <!-- bottom rule -->
  <line x1="72" y1="556" x2="240" y2="556" stroke="#d4a955" stroke-width="1"/>
  <text x="72" y="586" font-family="JetBrains Mono, monospace" font-size="13" letter-spacing="3.5" fill="#5a5650">
    BUILDWISEMEDIA.COM
  </text>
</svg>
